<?xml version="1.0" encoding="UTF-8" standalone="no"?>
<svg
   xmlns:dc="http://purl.org/dc/elements/1.1/"
   xmlns:cc="http://creativecommons.org/ns#"
   xmlns:rdf="http://www.w3.org/1999/02/22-rdf-syntax-ns#"
   xmlns:svg="http://www.w3.org/2000/svg"
   xmlns="http://www.w3.org/2000/svg"
   width="546.13336"
   height="546.13336"
   id="svg2"
   version="1.1"
   viewBox="0 0 512 512">
  <defs
     id="defs4" />
  <metadata
     id="metadata7">
    <rdf:RDF>
      <cc:Work
         rdf:about="">
        <dc:format>image/svg+xml</dc:format>
        <dc:type
           rdf:resource="http://purl.org/dc/dcmitype/StillImage" />
        <dc:title></dc:title>
      </cc:Work>
    </rdf:RDF>
  </metadata>
  <g
     transform="matrix(0.8624005,0,0,0.8624005,70.429303,67.698958)"
     id="layer1">
    <path
       d="M 200.77081,490.53716 C 160.2122,485.97291 97.95898,457.75561 68.563781,430.61202 61.078396,423.70017 55.825487,416.63462 56.89068,414.91101 c 2.577134,-4.16988 16.196558,-3.9874 24.253961,0.3248 10.159009,5.43681 58.609939,12.33348 86.418939,12.30122 49.32844,-0.0569 117.91051,-21.38071 156.23754,-48.5768 49.19345,-34.90618 92.67478,-91.98356 108.71365,-142.70669 11.01186,-34.82512 12.35919,-42.62319 14.02676,-81.18339 1.56644,-36.22229 0.91482,-43.4319 -6.78664,-75.086185 -8.48514,-34.875499 -8.51765,-41.392529 -0.20651,-41.392529 7.38155,0 32.97661,36.537537 47.76752,68.189264 20.44364,43.74815 24.54752,63.8243 24.52674,119.98506 -0.0158,45.44853 -0.45488,48.69948 -10.4413,77.48354 -25.32975,73.00851 -71.96944,128.27325 -135.7364,160.83847 -7.58576,3.87418 -26.34089,11.21266 -41.67805,16.30823 -23.10212,7.6753 -34.29912,9.45236 -65.27249,10.35939 -20.56274,0.60216 -46.63738,0.0538 -57.94365,-1.21823 z M 53.304394,275.43472 C 34.549961,259.20287 22.669866,242.93218 9.9660759,216.07955 0.46147059,195.98917 0.05732277,193.47219 0.00289455,154.02611 -0.05023704,115.52403 0.53961827,111.50612 9.2889647,90.774233 14.427547,78.598243 24.86265,60.408713 32.478115,50.353058 l 13.846308,-18.283048 36.900129,0.888784 36.900128,0.888752 v 33.207231 33.207243 l -13.0673,16.41481 c -20.970301,26.34238 -33.140688,59.54408 -35.057505,95.63961 -1.171519,22.06108 -0.22486,35.52845 3.492674,49.69434 2.804841,10.68764 5.099713,21.0056 5.099713,22.9288 0,7.43137 -12.918751,2.93151 -27.287868,-9.50486 z M 228.07551,222.08898 c -15.35155,-4.87637 -33.80901,-19.64581 -40.19508,-32.16348 -10.42017,-20.42526 -8.06796,-26.91006 12.23962,-33.74348 35.2745,-11.86969 43.96793,-32.71573 44.75247,-107.312155 l 0.17458,-16.603616 h 26.60092 c 26.11967,0 26.75817,0.18596 35.29401,10.278429 11.93025,14.105894 24.38521,42.212371 24.76324,55.88199 0.2704,9.781812 -0.76311,11.472002 -7.59333,12.416822 -14.18417,1.96204 -15.81297,5.74716 -15.81297,36.74725 0,24.42762 -1.19467,31.42204 -7.36138,43.09843 -13.02998,24.67168 -47.40592,39.48596 -72.86211,31.39981 z"
       id="path3000" />
  </g>
</svg>
