<?xml version="1.0" encoding="iso-8859-1"?>
<!DOCTYPE svg PUBLIC "-//W3C//DTD SVG 1.1//EN" "http://www.w3.org/Graphics/SVG/1.1/DTD/svg11.dtd">
<svg version="1.1" id="Capa_1" xmlns="http://www.w3.org/2000/svg" xmlns:xlink="http://www.w3.org/1999/xlink" x="0px" y="0px"
	 width="432.591px" height="432.592px" viewBox="0 0 432.591 432.592" style="enable-background:new 0 0 432.591 432.592;"
	 xml:space="preserve">
<g>
	<path d="M356.063,0c0,0-100.478,0-133.97,0c-60.062,0-116.585,45.503-116.585,98.211c0,53.863,40.941,97.333,102.044,97.333
		c4.249,0,8.378-0.085,12.42-0.376c-3.964,7.593-6.8,16.144-6.8,25.021c0,14.969,8.052,27.104,18.233,37.012
		c-7.692,0-15.12,0.224-23.226,0.224c-74.391-0.001-131.65,47.38-131.65,96.511c0,48.391,62.771,78.656,137.167,78.656
		c84.812,0,131.653-48.122,131.653-96.514c0-38.801-11.447-62.036-46.843-87.067c-12.107-8.571-35.267-29.418-35.267-41.672
		c0-14.36,4.099-21.434,25.714-38.323c22.156-17.312,37.837-41.651,37.837-69.958c0-33.703-15.011-66.549-43.188-77.386h42.479
		L356.063,0z M309.27,327.729c1.062,4.486,1.643,9.104,1.643,13.814c0,39.1-25.194,69.655-97.487,69.655
		c-51.421,0-88.558-32.552-88.558-71.65c0-38.321,46.063-70.222,97.482-69.666c12,0.127,23.184,2.058,33.334,5.345
		C283.597,294.641,303.621,305.607,309.27,327.729z M226.939,181.888c-34.519-1.032-67.317-38.613-73.275-83.93
		c-5.958-45.333,17.185-80.021,51.694-78.995C239.86,20,272.675,56.37,278.636,101.692
		C284.589,147.022,261.441,182.921,226.939,181.888z"/>
</g>
</svg>
